<svg height="60" viewBox="0 0 120 60" width="120" xmlns="http://www.w3.org/2000/svg"><g fill="none" fill-rule="evenodd" transform="matrix(.67239154 0 0 .67239154 10.000101 18.58900204)"><g fill="#312f30"><path d="m46.788611 3.0790278c-.898611 0-1.658333.775-1.658333 1.6930555v21.9124997c0 .918056.759722 1.693056 1.658333 1.693056.933333 0 1.693056-.759722 1.693056-1.693056v-21.9124997c0-.9333333-.759723-1.6930555-1.693056-1.6930555"/><path d="m62.126389 9.2347222c-2.448611 0-4.4125.9527778-5.852778 2.8347218v-.966666c0-.930556-.729167-1.6583336-1.659722-1.6583336-.894445 0-1.623611.7444446-1.623611 1.6583336v15.615278c0 .930555.727778 1.659722 1.658333 1.659722.926389 0 1.625-.713889 1.625-1.659722v-9.1125c0-3.138889 2.091667-5.330556 5.0875-5.330556 2.925 0 4.670833 1.915278 4.670833 5.122222v9.320834c0 .930555.729167 1.659722 1.659723 1.659722.911111 0 1.623611-.729167 1.623611-1.659722v-9.980556c0-4.556944-2.820834-7.5027778-7.188889-7.5027778"/><path d="m80.509444 17.351667-.0875.288889.02361-.308334c-2.234721-.680555-4.347221-1.322222-4.347221-2.856944 0-1.379167 1.276389-2.305556 3.176389-2.305556 1.416667 0 2.988889.468056 4.559722 1.359722.127778.06389.391667.170834.726389.170834.819445 0 1.484723-.65 1.484723-1.45 0-.555556-.301389-1.068056-.819445-1.379167-1.843055-.9958332-3.986111-1.5666666-5.881944-1.5666666-3.781945 0-6.423611 2.2416666-6.423611 5.5194446 0 3.616667 3.565277 4.629167 6.168055 5.369444 2.416667.675 4.265278 1.316667 4.265278 2.943056 0 1.525-1.373611 2.55-3.418056 2.55-1.855555 0-3.718055-.626389-5.515277-1.847222-.222223-.176389-.523612-.275-.85-.275-.819445 0-1.484723.651389-1.484723 1.451389 0 .576388.316667 1.006944.613889 1.218055 2.031945 1.451389 4.684722 2.318056 7.097222 2.318056 4.008334 0 6.701389-2.2875 6.701389-5.7625 0-3.643056-3.604166-4.722223-5.988889-5.4375"/><path d="m99.378194 12.239167c3.493056 0 6.027776 2.798611 6.027776 6.654166v.06945c0 3.897222-2.47916 6.619444-6.027776 6.619444-3.048611 0-6.201388-2.490278-6.201388-6.723611 0-4.088889 3.218055-6.619444 6.201388-6.619444m.486112-3.004172c-2.638889 0-4.801389 1.105556-6.583334 3.372222v-1.504166c0-.930556-.729166-1.6597227-1.659722-1.6597227-.911111 0-1.623611.7291667-1.623611 1.6597227v21.180555c0 .929167.727778 1.658333 1.658333 1.658333.926389 0 1.625-.713888 1.625-1.658333v-6.916667c1.7375 2.1375 3.948611 3.219445 6.583334 3.219445 4.312504 0 8.894444-3.384722 8.894444-9.727778 0-6.251389-4.58194-9.623611-8.894444-9.623611"/><path d="m113.39556 2.5568056c-1.08195 0-1.86806.7263888-1.86806 1.7291666v.4513889c0 .9861111.80278 1.7291667 1.86806 1.7291667 1.08472 0 1.90277-.7430556 1.90277-1.7291667v-.4513889c0-1.0027778-.8-1.7291666-1.90277-1.7291666"/><path d="m113.39556 9.44375c-.89584 0-1.625.744444-1.625 1.658333v15.616667c0 .929167.72916 1.658333 1.65972 1.658333.92639 0 1.62361-.713889 1.62361-1.658333v-15.616667c0-.929166-.72778-1.658333-1.65833-1.658333"/><path d="m128.97736 9.3740278c-2.18194 0-4.475 1.5444442-5.88889 3.8708332v-2.141667c0-.930555-.72778-1.6597218-1.65833-1.6597218-.89583 0-1.625.7444448-1.625 1.6597218v15.615278c0 .930556.72917 1.658334 1.65833 1.658334.91111 0 1.625-.727778 1.625-1.658334v-6.120833c0-4.495833 2.26667-7.452778 6.07222-7.909722.86112-.129167 1.44028-.793056 1.44028-1.655556 0-.961111-.68333-1.6583332-1.62361-1.6583332"/><path d="m148.72264 18.691944c.018-4.691666-2.95417-9.456944-8.65-9.456944-5.00556 0-8.92778 4.243056-8.92778 9.727778 0 5.505555 3.9875 9.658333 9.27639 9.658333 2.81806 0 4.975-.8625 6.98194-2.7875.33473-.294444.51945-.684722.51945-1.097222 0-.8-.66667-1.45-1.48472-1.45-.44861 0-.76111.218055-.96945.393055-1.46666 1.35-3.09583 2.006945-4.97916 2.006945-3.15834 0-5.52917-2.188889-5.98889-5.483333 0 0-.0917-.636112-.0917-1.276389 0-.638889.0917-1.311111.0917-1.311111.45-3.265278 2.675-5.515278 5.50277-5.515278 3.50139 0 5.075 2.790278 5.40278 5.515278h-8.05833c-.71528 0-1.29445.580555-1.29445 1.294444 0 .713889.57917 1.293056 1.29445 1.293056h9.82083c.84028 0 1.55139-.669445 1.55417-1.511112"/></g><path d="m35.850417 25.306528c-.294445.511111-.772223.877778-1.343056 1.029166-.570833.154167-1.168055.075-1.679167-.220833l-9.6-5.541667c-.405555-.233333-.9125-.204166-1.288888.07361-.343056.255555-.466667.666666-.466667 1.090277v5.154167c0 1.219444-.993056 2.2125-2.2125 2.2125-1.218056 0-2.209722-.993056-2.209722-2.2125v-9.508333c0-.65-.527778-1.177778-1.176389-1.177778-.65 0-1.176389.527778-1.176389 1.177778v3.520833l-9.0236112 5.211111c-.5125.295833-1.1097222.373611-1.6791667.220833-.5722222-.151388-1.05-.518055-1.3444444-1.027777-.6083334-1.058334-.2444445-2.413889.8111111-3.023611l9.5888892-5.536112c.286111-.163888.488889-.441666.561111-.7625.1875-.843055-.429167-1.2-.972222-1.515277l-9.1777782-5.2986094c-.5111111-.2944445-.8777778-.7722223-1.0305556-1.3416667-.1541666-.5722222-.075-1.1680556.2194445-1.6805556.2944444-.5097222.7722222-.8763889 1.3444444-1.0291666.5694445-.1527778 1.1666667-.075 1.6791667.2208333l9.5986112 5.543056c.405555.234722.9125.205555 1.288889-.07361.343055-.255555.468055-.666666.468055-1.0902773v-5.1555576c0-1.2180555.991667-2.2111111 2.211111-2.2111111 1.219445 0 2.211112.9930556 2.211112 2.2111111v9.5097219c0 .65.526388 1.177778 1.175 1.177778.65 0 1.176388-.527778 1.176388-1.177778v-3.522222l9.025-5.2097221c.511112-.2958333 1.108334-.375 1.679167-.2222222.570833.1527777 1.048611.5194444 1.343056 1.0291666.608333 1.0583334.245833 2.4138889-.809723 3.0236111l-9.590277 5.5361116c-.286111.165277-.488889.441666-.561111.7625-.1875.843055.429166 1.2.973611 1.513888l9.177777 5.298612c.509723.294444.876389.772222 1.030556 1.343055.152778.570833.07361 1.166667-.220833 1.679167m2.493055-2.288889c-.315278-1.177778-1.070833-2.161111-2.125-2.770833-2.194444-1.265278-5.719444-3.301389-7.826389-4.518056l7.826389-4.518056c2.176389-1.2583329 2.927778-4.0555551 1.669445-6.2361107-.608334-1.0555555-1.594445-1.8111111-2.772223-2.1277777-.393055-.1041667-.791666-.1569445-1.1875-.1569445-.791666 0-1.573611.2083333-2.276388.6138889l-7.848612 4.5319444v-3.2708333c0-2.5166667-2.047222-4.56527777-4.5625-4.56527777-2.518055 0-4.565277 2.04861107-4.565277 4.56527777v3.2569445l-7.8250003-4.5194445c-1.0583334-.6083333-2.2875-.7694444-3.4652778-.4555555-1.1777778.3152777-2.1625 1.0722222-2.77222223 2.1277777-.60972223 1.0569445-.77083334 2.2861111-.45555556 3.4638889.31666667 1.1791667 1.07222219 2.1624998 2.12638889 2.7722218 2.1944444 1.265278 5.7180556 3.3 7.825 4.516667l-7.825 4.519445c-2.17777778 1.256944-2.92777778 4.054166-1.67083333 6.234722.60972223 1.056944 1.59444443 1.8125 2.77222223 2.129166.3930555.104167.7930555.155556 1.1888889.155556.7902778 0 1.5722222-.206944 2.2763889-.6125l7.8472223-4.531944v3.269444c0 2.516667 2.047222 4.565278 4.5625 4.565278 2.519444 0 4.565278-2.048611 4.565278-4.565278v-3.256944l7.826389 4.519444c1.056944.609722 2.286111.770833 3.463888.456944 1.177778-.316666 2.163889-1.072222 2.772223-2.129166.609722-1.055556.770833-2.284722.455555-3.463889" fill="#e7158b"/></g></svg>